<?xml version="1.0" encoding="utf-8"?>
<!-- Generator: Adobe Illustrator 22.0.1, SVG Export Plug-In . SVG Version: 6.00 Build 0)  -->
<svg version="1.1" id="Layer_1" xmlns="http://www.w3.org/2000/svg" xmlns:xlink="http://www.w3.org/1999/xlink" x="0px" y="0px"
	 viewBox="0 0 595.3 841.9" style="enable-background:new 0 0 595.3 841.9;" xml:space="preserve">
<style type="text/css">
	.st0{fill:#6D8D24;}
	.st1{fill:#79AFDF;}
	.st2{fill:#B77BB3;}
	.st3{fill:#EFE980;}
	.st4{fill:#FFFFFF;}
	.st5{fill-rule:evenodd;clip-rule:evenodd;fill:#E73C30;}
	.st6{fill:#E73C30;}
	.st7{fill:none;stroke:#E73C30;stroke-width:5;stroke-linecap:round;}
	.st8{fill:none;stroke:#B77BB3;stroke-width:5;}
	.st9{fill:none;stroke:#EFE980;stroke-width:5;}
	.st10{fill:none;stroke:#FFFFFF;stroke-width:5;}
	.st11{fill:none;stroke:#79AFDF;stroke-width:5;}
	.st12{font-family:'ArialMT';}
	.st13{font-size:33px;}
	.st14{font-family:'Arial-BoldMT';}
	.st15{font-size:19px;}
</style>
<rect y="56.7" class="st0" width="595.3" height="785.2"/>
<g>
	<path class="st1" d="M500.5,620.5c0,33.9-27.5,61.4-61.4,61.4c-33.9,0-61.4-27.5-61.4-61.4c0-33.9,27.5-61.4,61.4-61.4
		C473,559.1,500.5,586.6,500.5,620.5"/>
	<path class="st2" d="M308.7,336.9c2,12.6-6.7,24.3-19.2,26.3c-12.6,2-24.3-6.6-26.3-19.2c-2-12.6,6.6-24.3,19.2-26.3
		C294.9,315.8,306.7,324.4,308.7,336.9"/>
	<path class="st2" d="M377.1,333.2c1.9,12.6-6.7,24.3-19.2,26.3c-12.6,2-24.3-6.7-26.3-19.2c-2-12.6,6.7-24.3,19.2-26.3
		C363.4,312,375.2,320.6,377.1,333.2"/>
	<path class="st2" d="M441.7,358.5c2,12.6-6.6,24.3-19.2,26.3c-12.6,2-24.3-6.7-26.3-19.2c-2-12.6,6.6-24.3,19.2-26.3
		C428,337.4,439.8,346,441.7,358.5"/>
	<path class="st2" d="M482.2,410.1c2,12.6-6.6,24.3-19.2,26.3c-12.6,2-24.3-6.6-26.3-19.2c-2-12.6,6.6-24.3,19.2-26.3
		C468.5,388.9,480.3,397.5,482.2,410.1"/>
	<path class="st2" d="M492.2,474.1c2,12.6-6.6,24.3-19.2,26.3c-12.6,2-24.3-6.6-26.3-19.2c-2-12.6,6.6-24.3,19.2-26.3
		C478.5,452.9,490.2,461.5,492.2,474.1"/>
	<path class="st3" d="M225,582.1c0,30.6-24.8,55.4-55.4,55.4c-30.6,0-55.4-24.8-55.4-55.4c0-30.6,24.8-55.4,55.4-55.4
		C200.2,526.7,225,551.5,225,582.1"/>
	<path class="st4" d="M295.7,477.6c0,23.8-19.3,43.1-43.1,43.1c-23.8,0-43.1-19.3-43.1-43.1c0-23.8,19.3-43.1,43.1-43.1
		C276.4,434.6,295.7,453.9,295.7,477.6"/>
	<path class="st5" d="M167.1,351.4c0,19.9-16.2,36.1-36.1,36.1c-20,0-36.1-16.2-36.1-36.1c0-19.9,16.2-36.1,36.1-36.1
		C150.9,315.3,167.1,331.4,167.1,351.4"/>
	<polygon class="st6" points="209.6,364.2 209.8,338.5 232.8,351.4 	"/>
	<line class="st7" x1="131.1" y1="351.3" x2="221.2" y2="351.4"/>
	<polygon class="st2" points="257.7,386.1 281.6,395.4 261.4,412.3 	"/>
	<line class="st8" x1="287.9" y1="337.9" x2="265.6" y2="401.5"/>
	<polygon class="st2" points="295.2,397.6 317.4,410.6 294.8,424.1 	"/>
	<line class="st8" x1="350" y1="346" x2="300.6" y2="414.1"/>
	<polygon class="st2" points="334.1,410 350.1,430.1 324.1,434.5 	"/>
	<line class="st8" x1="419" y1="364.2" x2="333.1" y2="427.3"/>
	<polygon class="st2" points="342.9,440.6 350,465.3 324.2,459.5 	"/>
	<line class="st8" x1="459.5" y1="413.6" x2="335.4" y2="456.3"/>
	<polygon class="st2" points="346.7,473.6 346,499.2 323.2,486 	"/>
	<line class="st8" x1="477.4" y1="477.6" x2="334.8" y2="486.2"/>
	<polygon class="st3" points="146.9,428.3 121.2,428.8 133.4,405.4 	"/>
	<line class="st9" x1="154.2" y1="548.9" x2="133.7" y2="417"/>
	<polygon class="st4" points="198.7,398.5 180.1,416.2 173.3,390.8 	"/>
	<line class="st10" x1="244.1" y1="463.8" x2="181.4" y2="399.1"/>
	<polygon class="st4" points="212.9,508.8 231.9,526 207,534.7 	"/>
	<line class="st10" x1="274.7" y1="458.8" x2="214.7" y2="526"/>
	<polygon class="st4" points="352.2,586.4 368.3,566.3 378.4,590.7 	"/>
	<line class="st10" x1="269.6" y1="500.7" x2="369.3" y2="583.5"/>
	<polygon class="st1" points="248.8,609.9 248.9,635.6 225.7,623 	"/>
	<line class="st11" x1="395.9" y1="625" x2="237.3" y2="622.8"/>
	<polygon class="st3" points="343.7,616.4 343.8,590.7 366.8,603.4 	"/>
	<line class="st9" x1="194.4" y1="599.2" x2="355.2" y2="603.5"/>
</g>
<text transform="matrix(1 0 0 1 28.3467 150.7031)"><tspan x="0" y="0" class="st4 st12 st13">Junior College</tspan><tspan x="0" y="55.6" class="st4 st14 st13">De wiskunde achter Google</tspan></text>
<text transform="matrix(1 0 0 1 28.3467 771.4941)"><tspan x="0" y="0" class="st4 st12 st15">Hilde Eggermont, Gerda Somers, Stefaan Vaes,</tspan><tspan x="0" y="22.8" class="st4 st12 st15">An Vanfroyenhoven, Roman Verraest</tspan></text>
<text transform="matrix(1 0 0 1 28.3467 247.123)" class="st4 st12 st15">Handleiding voor de leraar</text>
</svg>
